<svg xmlns="http://www.w3.org/2000/svg" width="99" height="32" viewBox="0 0 99 32" fill="none">
<path d="M32.9611 27.6208C32.1871 27.6019 31.5302 26.9753 31.5302 26.2007L31.5317 0.890625H23.0812V28.7894C23.0812 30.1574 24.2032 31.2725 25.5814 31.2725H40.3516C41.7374 31.2725 42.8464 30.1567 42.8464 28.7894V0.890625H34.4028L34.3959 26.2007C34.3967 26.9753 33.7382 27.6019 32.9611 27.6208ZM61.2525 0.890625H48.4648C48.1032 0.891219 47.7453 0.962179 47.4115 1.09944C47.0777 1.23669 46.7746 1.43756 46.5195 1.69055C46.2644 1.94353 46.0623 2.24368 45.9249 2.57381C45.7874 2.90395 45.7172 3.2576 45.7183 3.61453V31.2725H54.1772V5.90356C54.1782 5.71936 54.216 5.53716 54.2884 5.36739C54.3608 5.19762 54.4664 5.04361 54.5992 4.91416C54.7319 4.78472 54.8893 4.68238 55.0621 4.61302C55.235 4.54365 55.42 4.50861 55.6066 4.50991C56.3959 4.50991 57.0292 5.11086 57.0476 5.88167V31.2733H65.4697V5.88092C65.482 5.1101 66.1137 4.50915 66.9023 4.50915C67.6831 4.50915 68.3286 5.1252 68.3348 5.90281V31.2725H76.7944V3.61453C76.7952 3.25749 76.7247 2.90379 76.587 2.57364C76.4493 2.24349 76.247 1.94336 75.9918 1.69041C75.7365 1.43745 75.4333 1.23662 75.0993 1.09939C74.7654 0.96216 74.4074 0.891219 74.0457 0.890625H61.2525ZM17.4445 23.6383H8.90759V31.2725H0.460938V0.890625H17.498C19.0231 0.890625 20.2139 2.11442 20.2139 3.6266V20.8986C20.215 21.2582 20.1442 21.6144 20.0055 21.947C19.8668 22.2795 19.6629 22.5816 19.4056 22.8362C19.1483 23.0907 18.8426 23.2926 18.5061 23.4303C18.1695 23.5679 17.8088 23.6386 17.4445 23.6383ZM11.7734 5.95566C11.776 5.76796 11.7411 5.5816 11.6706 5.40724C11.6002 5.23289 11.4955 5.07397 11.3627 4.9396C11.23 4.80522 11.0716 4.69804 10.8968 4.62417C10.722 4.55031 10.5341 4.51122 10.3439 4.50915H8.90759V19.8764H10.3439C11.0881 19.8764 11.7803 19.292 11.7734 18.4487V5.95566Z" fill="#A7A7A7"/>
<path d="M89.6013 31.4009V23.7876H86.6747V31.4009H78.0781V3.79672C78.0781 2.28974 79.3323 1.07812 80.8761 1.07812H95.4006C95.7691 1.07842 96.134 1.14901 96.4743 1.28586C96.8145 1.42271 97.1236 1.62313 97.3837 1.87564C97.6438 2.12815 97.8499 2.42781 97.9901 2.75745C98.1304 3.0871 98.202 3.44026 98.201 3.79672V31.4009H89.6013ZM89.6013 20.0329V6.07C89.5802 5.29843 88.936 4.70468 88.1337 4.70468C87.7509 4.70404 87.3831 4.84922 87.1101 5.10882C86.8371 5.36842 86.6807 5.72156 86.6747 6.09185V20.0329H89.6013Z" fill="#A7A7A7"/>
</svg>