<svg xmlns="http://www.w3.org/2000/svg" width="160" height="80" viewBox="0 0 160 80" fill="none">
<path fill-rule="evenodd" clip-rule="evenodd" d="M120.672 21.5954C119.906 20.8285 118.837 20.4453 117.851 20.4453H42.4428C41.4701 20.4453 40.4018 20.8697 39.6623 21.5954L24.5281 36.7958C22.9672 38.3434 22.9947 40.8637 24.5556 42.4107L39.7035 57.516C40.4293 58.2423 41.4701 58.6662 42.4428 58.6662H117.879C118.837 58.6936 119.905 58.3105 120.672 57.5435L135.82 42.3838C137.34 40.8637 137.34 38.3165 135.82 36.7964L120.672 21.5954ZM119.603 55.379C118.919 56.064 118.015 56.3934 117.11 56.3934V56.394H42.9492C42.0996 56.3653 41.1682 56.0096 40.5112 55.3521L27.158 42.0138C25.8027 40.658 25.7752 38.4534 27.1311 37.0977L40.4843 23.7319C41.1413 23.0887 42.0727 22.7187 42.9498 22.7187H117.11C117.987 22.7462 118.919 23.0881 119.603 23.7594L132.956 37.1252C133.608 37.7775 133.974 38.6615 133.974 39.5832C133.974 40.505 133.608 41.389 132.956 42.0413L119.603 55.379ZM58.052 44.5053C59.6757 47.4935 57.7107 50.8393 54.1905 50.8393V50.8387H43.5882C43.0152 50.8105 42.7424 50.5214 42.715 49.957V47.1485C42.716 47.02 42.7423 46.8929 42.7923 46.7746C42.8424 46.6564 42.9152 46.5494 43.0066 46.4597C43.098 46.3701 43.2061 46.2997 43.3246 46.2526C43.4432 46.2054 43.5698 46.1825 43.6972 46.1851H50.3969C50.9014 46.1851 51.0384 45.7855 50.8472 45.4964C50.1194 44.5729 49.1287 43.4563 48.0552 42.2464C45.8479 39.7587 43.2907 36.8766 41.9502 34.4679C40.859 32.5128 41.759 28.2721 45.2661 28.2721H55.4318C55.9643 28.2721 56.3598 28.7265 56.3872 29.2361V32.0314C56.3872 32.6234 56.1418 32.871 55.514 32.8987H49.5785C48.9233 32.8987 48.8411 33.3945 49.0734 33.6421C50.0175 34.7852 51.1185 36.0015 52.2351 37.2348C54.5075 39.7451 56.8442 42.3263 58.052 44.5053ZM65.8982 41.4492V49.903C65.8982 50.4126 65.4199 50.8393 64.9982 50.8393H60.9181C60.4946 50.8393 60.0443 50.4126 60.0169 49.9306L59.9901 29.2367C59.9901 28.7 60.3445 28.2733 60.9997 28.2457H64.8749C65.4479 28.2457 65.8982 28.6994 65.8982 29.2367V36.2859H70.5102V29.2367C70.5102 28.81 70.8515 28.2733 71.5472 28.2457H75.4367C76.0776 28.2457 76.4189 28.6994 76.4189 29.2367L76.4463 49.903C76.4463 50.4673 75.996 50.8393 75.4909 50.8393H71.4108C71.0421 50.8393 70.4828 50.385 70.4828 49.903V41.4492H65.8982ZM111.364 50.8393H98.6056C98.1279 50.8117 97.6508 50.302 97.6234 49.903V29.2367C97.6234 28.7824 98.1279 28.2998 98.633 28.2727H111.337C111.951 28.2727 112.264 28.6171 112.264 29.2091V32.032C112.291 32.5417 111.842 32.8993 111.418 32.8993H103.763V36.8503H108.799C109.303 36.905 109.726 37.3046 109.699 37.7314V40.5952C109.726 41.0225 109.359 41.5039 108.853 41.4762H103.763V46.1575H111.391C111.923 46.1575 112.319 46.5571 112.319 47.1215V49.903C112.319 50.5911 111.923 50.8117 111.364 50.8393ZM118.732 50.8117H114.966C114.516 50.8117 114.065 50.4673 114.038 49.9306V29.2091C114.038 28.6171 114.379 28.2998 114.993 28.2727H118.677C119.21 28.2727 119.578 28.6994 119.606 29.2091V49.9306C119.606 50.4949 119.237 50.8117 118.732 50.8117ZM78.7794 31.4809C78.534 36.8522 78.534 42.2321 78.7794 47.6035C78.7794 49.0219 80.3346 50.867 81.9857 50.867H92.0018C93.7077 50.867 95.1271 49.1595 95.1271 47.6035C95.3999 42.1097 95.3999 36.7403 95.1271 31.4532C95.086 30.0625 93.4343 28.2727 92.0018 28.2727H82.0131C80.2673 28.328 78.8342 30.1731 78.7794 31.4809ZM88.5359 46.4063C87.4578 46.461 86.4202 46.461 85.4106 46.4063C85.0425 46.3781 84.6744 46.0343 84.647 45.3323C84.4284 41.4768 84.3331 37.622 84.647 33.7533C84.7018 33.0784 84.9883 32.734 85.4106 32.6787C86.4208 32.5687 87.4852 32.5687 88.5359 32.651C88.8772 32.651 89.1499 33.1054 89.1768 33.7527C89.4359 37.6214 89.4359 41.4492 89.1768 45.3317C89.1499 45.8966 88.9862 46.3787 88.5359 46.4063Z" fill="#A7A7A7"/>
</svg>