<svg width="155" height="31" viewBox="0 0 155 31" fill="none" xmlns="http://www.w3.org/2000/svg">
<path d="M51.5895 9.84216C51.2606 9.66697 50.8264 9.46872 50.2867 9.24742C49.7471 9.02612 49.1358 8.81865 48.4528 8.62501C47.7698 8.42215 47.0278 8.25618 46.2267 8.12709C45.4257 7.98877 44.6035 7.91962 43.7603 7.91962C43.0858 7.91962 42.5082 7.94267 42.0276 7.98877C41.5554 8.03488 41.1549 8.09481 40.826 8.16858C40.5056 8.24235 40.2484 8.32994 40.0545 8.43137C39.869 8.52358 39.7256 8.6204 39.6244 8.72183C39.5233 8.82326 39.4558 8.92469 39.4221 9.02612C39.3968 9.12755 39.3841 9.21976 39.3841 9.30274C39.3841 9.57937 39.5106 9.82372 39.7636 10.0358C40.0165 10.2387 40.3622 10.4231 40.8007 10.5891C41.2392 10.7458 41.7493 10.8979 42.3311 11.0455C42.9129 11.1838 43.5285 11.3313 44.1777 11.4881C44.8354 11.6356 45.51 11.8016 46.2014 11.986C46.9013 12.1612 47.5758 12.3687 48.2251 12.6084C48.8828 12.8482 49.5026 13.1294 50.0844 13.4521C50.6662 13.7656 51.1763 14.1345 51.6148 14.5586C52.0532 14.9828 52.399 15.4715 52.6519 16.0247C52.9049 16.578 53.0314 17.2096 53.0314 17.9196C53.0314 18.8325 52.8838 19.6163 52.5887 20.2709C52.2936 20.9256 51.8972 21.4789 51.3998 21.9307C50.9107 22.3825 50.3415 22.7467 49.6923 23.0234C49.043 23.2908 48.36 23.4982 47.6433 23.6458C46.935 23.7933 46.2141 23.8901 45.4805 23.9362C44.7553 23.9823 44.0639 24.0054 43.4062 24.0054C41.6861 24.0054 40.0924 23.8486 38.6252 23.5351C37.1665 23.2308 35.8764 22.8482 34.7549 22.3871V17.8505C35.9101 18.5512 37.2255 19.0999 38.7011 19.4964C40.1852 19.8929 41.7704 20.0911 43.4568 20.0911C44.4518 20.0911 45.2612 20.0358 45.8852 19.9251C46.5176 19.8053 47.0109 19.6577 47.365 19.4825C47.7192 19.2981 47.9595 19.0999 48.086 18.8878C48.2125 18.6757 48.2757 18.4729 48.2757 18.2792C48.2757 17.9749 48.1492 17.7121 47.8963 17.4908C47.6433 17.2603 47.2976 17.0621 46.8591 16.8961C46.4206 16.7209 45.9105 16.5642 45.3287 16.4258C44.7469 16.2783 44.1271 16.1354 43.4694 15.9971C42.8202 15.8495 42.1498 15.6928 41.4584 15.5268C40.767 15.3608 40.0924 15.1672 39.4347 14.9459C38.7855 14.7154 38.1699 14.4526 37.5881 14.1575C37.0063 13.8532 36.4962 13.4982 36.0577 13.0925C35.6192 12.6776 35.2735 12.2027 35.0206 11.6679C34.7676 11.1239 34.6411 10.4968 34.6411 9.78684C34.6411 8.94774 34.776 8.22391 35.0459 7.61533C35.3157 7.00675 35.6783 6.49039 36.1336 6.06623C36.5973 5.63285 37.1286 5.28246 37.7272 5.01505C38.3343 4.74765 38.971 4.54018 39.6371 4.39265C40.3032 4.24511 40.9778 4.14368 41.6608 4.08836C42.3438 4.03303 42.993 4.00537 43.6086 4.00537C44.2831 4.00537 44.9746 4.04225 45.6828 4.11602C46.3996 4.18979 47.1036 4.29583 47.7951 4.43414C48.4865 4.56323 49.1526 4.71538 49.7935 4.89057C50.4427 5.06577 51.0414 5.25018 51.5895 5.44382V9.84216Z" fill="black"/>
<path d="M74.1156 23.4936V15.5683H62.1759V23.4936H57.4835V4.48947H62.1759V11.4051H74.1156V4.48947H78.808V23.4936H74.1156Z" fill="black"/>
<path d="M106.735 14.0054C106.735 15.6375 106.461 17.0805 105.913 18.3346C105.365 19.5794 104.581 20.6213 103.56 21.4604C102.54 22.2995 101.3 22.9358 99.8417 23.3691C98.3914 23.7933 96.7598 24.0054 94.9469 24.0054C93.134 24.0054 91.494 23.7933 90.0268 23.3691C88.5681 22.9358 87.3244 22.2995 86.2957 21.4604C85.267 20.6213 84.4744 19.5794 83.9178 18.3346C83.3613 17.0805 83.0831 15.6375 83.0831 14.0054C83.0831 12.3733 83.3613 10.9348 83.9178 9.69002C84.4744 8.43598 85.267 7.38942 86.2957 6.55032C87.3244 5.71123 88.5681 5.0796 90.0268 4.65544C91.494 4.22206 93.134 4.00537 94.9469 4.00537C96.7598 4.00537 98.3914 4.22206 99.8417 4.65544C101.3 5.0796 102.54 5.71123 103.56 6.55032C104.581 7.38942 105.365 8.43598 105.913 9.69002C106.461 10.9348 106.735 12.3733 106.735 14.0054ZM101.992 14.0054C101.992 13.2954 101.886 12.59 101.676 11.8892C101.473 11.1792 101.107 10.5429 100.575 9.98047C100.053 9.418 99.3358 8.96157 98.4251 8.61118C97.5145 8.26079 96.3551 8.08559 94.9469 8.08559C94.0025 8.08559 93.172 8.16858 92.4553 8.33456C91.7385 8.49131 91.1188 8.71261 90.596 8.99846C90.0732 9.2843 89.6348 9.62086 89.2806 10.0081C88.9265 10.3862 88.644 10.7965 88.4332 11.2391C88.2224 11.6725 88.0706 12.1289 87.9779 12.6084C87.8935 13.0787 87.8514 13.5443 87.8514 14.0054C87.8514 14.4756 87.8935 14.9505 87.9779 15.43C88.0706 15.9095 88.2224 16.3705 88.4332 16.8131C88.644 17.2465 88.9265 17.6522 89.2806 18.0303C89.6348 18.4083 90.0732 18.7403 90.596 19.0261C91.1188 19.3027 91.7385 19.524 92.4553 19.69C93.172 19.8468 94.0025 19.9251 94.9469 19.9251C96.3551 19.9251 97.5145 19.75 98.4251 19.3996C99.3358 19.0492 100.053 18.5927 100.575 18.0303C101.107 17.4678 101.473 16.8362 101.676 16.1354C101.886 15.4254 101.992 14.7154 101.992 14.0054Z" fill="black"/>
<path d="M130.538 10.9763C130.538 11.9261 130.412 12.8021 130.159 13.6043C129.906 14.3973 129.497 15.0842 128.932 15.6651C128.376 16.2368 127.651 16.684 126.757 17.0068C125.863 17.3295 124.775 17.4908 123.494 17.4908H115.702V23.4936H111.01V4.48947H123.494C124.775 4.48947 125.863 4.65083 126.757 4.97356C127.651 5.28707 128.376 5.73428 128.932 6.31519C129.497 6.88688 129.906 7.56923 130.159 8.36222C130.412 9.15521 130.538 10.0266 130.538 10.9763ZM125.795 11.0593C125.795 10.6167 125.736 10.2387 125.618 9.92515C125.509 9.60242 125.323 9.33963 125.062 9.13677C124.8 8.93391 124.459 8.78638 124.037 8.69417C123.616 8.59274 123.097 8.54202 122.482 8.54202H115.702V13.4383H122.482C123.097 13.4383 123.616 13.4014 124.037 13.3276C124.459 13.2447 124.8 13.1109 125.062 12.9265C125.323 12.7329 125.509 12.4839 125.618 12.1796C125.736 11.8754 125.795 11.5019 125.795 11.0593Z" fill="black"/>
<path d="M139.127 23.4936H134.434V4.48947H146.197C147.462 4.48947 148.532 4.63239 149.409 4.91823C150.295 5.20408 151.011 5.6098 151.56 6.13539C152.116 6.66097 152.517 7.29721 152.761 8.0441C153.014 8.78177 153.141 9.60703 153.141 10.5199C153.141 11.3221 153.035 12.0229 152.824 12.6222C152.622 13.2216 152.344 13.738 151.99 14.1713C151.644 14.5955 151.239 14.9551 150.775 15.2502C150.312 15.5453 149.823 15.7896 149.308 15.9832L155 23.4936H149.511L144.249 16.495H139.127V23.4936ZM148.398 10.4922C148.398 10.1234 148.351 9.80989 148.258 9.55171C148.174 9.29352 148.022 9.08605 147.803 8.9293C147.584 8.76332 147.289 8.64345 146.918 8.56969C146.555 8.49592 146.1 8.45904 145.552 8.45904H139.127V12.5254H145.552C146.1 12.5254 146.555 12.4885 146.918 12.4148C147.289 12.341 147.584 12.2257 147.803 12.069C148.022 11.903 148.174 11.6909 148.258 11.4328C148.351 11.1746 148.398 10.8611 148.398 10.4922Z" fill="black"/>
<path d="M23.7766 10.6755L23.7604 10.6593C23.7591 10.6584 23.758 10.6572 23.7574 10.6558L13.6072 0.505371L3.45713 10.6555C3.45596 10.6567 3.45531 10.6583 3.45413 10.659L3.43738 10.6753C1.8853 12.2361 0.899455 14.2709 0.636575 16.4563C0.373696 18.6418 0.848865 20.8524 1.98654 22.7367C3.12422 24.6211 4.85912 26.0712 6.91546 26.8562C8.97178 27.6413 11.2315 27.7165 13.3355 27.0697C13.5125 27.0156 13.7017 27.0156 13.8788 27.0697C15.9826 27.7162 18.2422 27.641 20.2984 26.8558C22.3546 26.0707 24.0893 24.6207 25.2269 22.7365C26.3645 20.8522 26.8398 18.6418 26.577 16.4565C26.3142 14.2712 25.3285 12.2363 23.7766 10.6755ZM7.06636 17.3689C7.01695 17.4183 6.97777 17.477 6.95104 17.5415C6.92431 17.606 6.91054 17.6752 6.91056 17.745C6.92862 19.5365 7.4349 21.289 8.37492 22.8142C8.39627 22.8488 8.40614 22.8893 8.40311 22.9298C8.40008 22.9703 8.38432 23.0088 8.35805 23.0399C8.3318 23.0709 8.2964 23.0928 8.25693 23.1025C8.21745 23.1122 8.17592 23.1092 8.13828 23.0939C7.4316 22.7966 6.78962 22.3645 6.24823 21.8218C5.13875 20.7121 4.51502 19.2074 4.51401 17.6382C4.51301 16.069 5.13481 14.5636 6.24287 13.4525L13.6072 6.08888L20.9711 13.4525C22.0794 14.5634 22.7014 16.0689 22.7004 17.6382C22.6994 19.2074 22.0756 20.7121 20.966 21.8218C20.4246 22.3645 19.7827 22.7966 19.0761 23.0939C19.0384 23.1092 18.9968 23.1122 18.9574 23.1025C18.918 23.0928 18.8826 23.0708 18.8562 23.0399C18.83 23.0088 18.8142 22.9703 18.8111 22.9297C18.8081 22.8892 18.818 22.8487 18.8393 22.8141C19.7795 21.289 20.2861 19.5365 20.3044 17.745C20.3044 17.6752 20.2905 17.606 20.2637 17.5414C20.2368 17.4768 20.1975 17.4182 20.148 17.3688L16.6648 13.6742C16.63 13.6452 16.5864 13.6294 16.5412 13.6294C16.4961 13.6294 16.4523 13.6452 16.4177 13.6742C16.383 13.703 16.3597 13.7432 16.3515 13.7877C16.3434 13.8321 16.3511 13.8778 16.3734 13.9172C17.7262 16.3652 16.5629 19.8816 14.623 21.8218L14.6128 21.832C14.345 22.0969 13.9835 22.2454 13.6069 22.2453C13.2303 22.2451 12.8689 22.0964 12.6013 21.8314L12.5919 21.8218C10.6513 19.8816 9.48857 16.3656 10.8416 13.9177C10.8638 13.8784 10.8716 13.8326 10.8635 13.7882C10.8554 13.7438 10.832 13.7035 10.7973 13.6747C10.7627 13.6457 10.7189 13.6299 10.6738 13.6299C10.6286 13.6299 10.5849 13.6457 10.5503 13.6747L7.06636 17.3689Z" fill="#121212"/>
</svg>
