<svg width="155" height="31" viewBox="0 0 155 31" fill="none" xmlns="http://www.w3.org/2000/svg">
<path d="M51.5895 9.84228C51.2606 9.66709 50.8264 9.46884 50.2867 9.24754C49.7471 9.02624 49.1358 8.81877 48.4528 8.62513C47.7698 8.42228 47.0278 8.2563 46.2267 8.12721C45.4257 7.9889 44.6035 7.91974 43.7603 7.91974C43.0858 7.91974 42.5082 7.94279 42.0276 7.9889C41.5554 8.035 41.1549 8.09494 40.826 8.1687C40.5056 8.24247 40.2484 8.33007 40.0545 8.4315C39.869 8.5237 39.7256 8.62052 39.6244 8.72195C39.5233 8.82338 39.4558 8.92481 39.4221 9.02624C39.3968 9.12767 39.3841 9.21988 39.3841 9.30287C39.3841 9.57949 39.5106 9.82384 39.7636 10.0359C40.0165 10.2388 40.3622 10.4232 40.8007 10.5892C41.2392 10.7459 41.7493 10.8981 42.3311 11.0456C42.9129 11.1839 43.5285 11.3314 44.1777 11.4882C44.8354 11.6357 45.51 11.8017 46.2014 11.9861C46.9013 12.1613 47.5758 12.3688 48.2251 12.6085C48.8828 12.8483 49.5026 13.1295 50.0844 13.4522C50.6662 13.7658 51.1763 14.1346 51.6148 14.5587C52.0532 14.9829 52.399 15.4716 52.6519 16.0249C52.9049 16.5781 53.0314 17.2097 53.0314 17.9197C53.0314 18.8326 52.8838 19.6164 52.5887 20.2711C52.2936 20.9257 51.8972 21.479 51.3998 21.9308C50.9107 22.3826 50.3415 22.7468 49.6923 23.0235C49.043 23.2909 48.36 23.4983 47.6433 23.6459C46.935 23.7934 46.2141 23.8902 45.4805 23.9363C44.7553 23.9824 44.0639 24.0055 43.4062 24.0055C41.6861 24.0055 40.0924 23.8487 38.6252 23.5352C37.1665 23.2309 35.8764 22.8483 34.7549 22.3872V17.8506C35.9101 18.5514 37.2255 19.1 38.7011 19.4965C40.1852 19.893 41.7704 20.0912 43.4568 20.0912C44.4518 20.0912 45.2612 20.0359 45.8852 19.9253C46.5176 19.8054 47.0109 19.6579 47.365 19.4827C47.7192 19.2983 47.9595 19.1 48.086 18.8879C48.2125 18.6758 48.2757 18.473 48.2757 18.2794C48.2757 17.9751 48.1492 17.7123 47.8963 17.491C47.6433 17.2604 47.2976 17.0622 46.8591 16.8962C46.4206 16.721 45.9105 16.5643 45.3287 16.426C44.7469 16.2784 44.1271 16.1355 43.4694 15.9972C42.8202 15.8497 42.1498 15.6929 41.4584 15.5269C40.767 15.361 40.0924 15.1673 39.4347 14.946C38.7855 14.7155 38.1699 14.4527 37.5881 14.1576C37.0063 13.8533 36.4962 13.4983 36.0577 13.0926C35.6192 12.6777 35.2735 12.2028 35.0206 11.668C34.7676 11.124 34.6411 10.497 34.6411 9.78696C34.6411 8.94786 34.776 8.22403 35.0459 7.61545C35.3157 7.00688 35.6783 6.49051 36.1336 6.06635C36.5973 5.63297 37.1286 5.28258 37.7272 5.01518C38.3343 4.74777 38.971 4.5403 39.6371 4.39277C40.3032 4.24523 40.9778 4.14381 41.6608 4.08848C42.3438 4.03316 42.993 4.00549 43.6086 4.00549C44.2831 4.00549 44.9746 4.04238 45.6828 4.11614C46.3996 4.18991 47.1036 4.29595 47.7951 4.43426C48.4865 4.56335 49.1526 4.7155 49.7935 4.89069C50.4427 5.06589 51.0414 5.25031 51.5895 5.44394V9.84228Z" fill="black"/>
<path d="M74.1156 23.4937V15.5684H62.1759V23.4937H57.4835V4.48959H62.1759V11.4052H74.1156V4.48959H78.808V23.4937H74.1156Z" fill="black"/>
<path d="M106.735 14.0055C106.735 15.6376 106.461 17.0806 105.913 18.3347C105.365 19.5795 104.581 20.6214 103.56 21.4605C102.54 22.2996 101.3 22.9359 99.8417 23.3693C98.3914 23.7934 96.7598 24.0055 94.9469 24.0055C93.134 24.0055 91.494 23.7934 90.0268 23.3693C88.5681 22.9359 87.3244 22.2996 86.2957 21.4605C85.267 20.6214 84.4744 19.5795 83.9178 18.3347C83.3613 17.0806 83.0831 15.6376 83.0831 14.0055C83.0831 12.3734 83.3613 10.935 83.9178 9.69014C84.4744 8.43611 85.267 7.38954 86.2957 6.55044C87.3244 5.71135 88.5681 5.07972 90.0268 4.65556C91.494 4.22218 93.134 4.00549 94.9469 4.00549C96.7598 4.00549 98.3914 4.22218 99.8417 4.65556C101.3 5.07972 102.54 5.71135 103.56 6.55044C104.581 7.38954 105.365 8.43611 105.913 9.69014C106.461 10.935 106.735 12.3734 106.735 14.0055ZM101.992 14.0055C101.992 13.2955 101.886 12.5901 101.676 11.8893C101.473 11.1793 101.107 10.5431 100.575 9.9806C100.053 9.41813 99.3358 8.96169 98.4251 8.6113C97.5145 8.26091 96.3551 8.08571 94.9469 8.08571C94.0025 8.08571 93.172 8.1687 92.4553 8.33468C91.7385 8.49143 91.1188 8.71273 90.596 8.99858C90.0732 9.28442 89.6348 9.62098 89.2806 10.0083C88.9265 10.3863 88.644 10.7966 88.4332 11.2392C88.2224 11.6726 88.0706 12.1291 87.9779 12.6085C87.8935 13.0788 87.8514 13.5445 87.8514 14.0055C87.8514 14.4758 87.8935 14.9506 87.9779 15.4301C88.0706 15.9096 88.2224 16.3706 88.4332 16.8132C88.644 17.2466 88.9265 17.6523 89.2806 18.0304C89.6348 18.4084 90.0732 18.7404 90.596 19.0262C91.1188 19.3029 91.7385 19.5242 92.4553 19.6901C93.172 19.8469 94.0025 19.9253 94.9469 19.9253C96.3551 19.9253 97.5145 19.7501 98.4251 19.3997C99.3358 19.0493 100.053 18.5929 100.575 18.0304C101.107 17.4679 101.473 16.8363 101.676 16.1355C101.886 15.4255 101.992 14.7155 101.992 14.0055Z" fill="black"/>
<path d="M130.538 10.9764C130.538 11.9262 130.412 12.8022 130.159 13.6044C129.906 14.3974 129.497 15.0843 128.932 15.6652C128.376 16.2369 127.651 16.6841 126.757 17.0069C125.863 17.3296 124.775 17.491 123.494 17.491H115.702V23.4937H111.01V4.48959H123.494C124.775 4.48959 125.863 4.65095 126.757 4.97368C127.651 5.28719 128.376 5.7344 128.932 6.31531C129.497 6.88701 129.906 7.56935 130.159 8.36234C130.412 9.15533 130.538 10.0267 130.538 10.9764ZM125.795 11.0594C125.795 10.6168 125.736 10.2388 125.618 9.92527C125.509 9.60254 125.323 9.33975 125.062 9.13689C124.8 8.93403 124.459 8.7865 124.037 8.69429C123.616 8.59286 123.097 8.54215 122.482 8.54215H115.702V13.4384H122.482C123.097 13.4384 123.616 13.4015 124.037 13.3278C124.459 13.2448 124.8 13.1111 125.062 12.9267C125.323 12.733 125.509 12.4841 125.618 12.1798C125.736 11.8755 125.795 11.502 125.795 11.0594Z" fill="black"/>
<path d="M139.127 23.4937H134.434V4.48959H146.197C147.462 4.48959 148.532 4.63251 149.409 4.91836C150.295 5.2042 151.011 5.60992 151.56 6.13551C152.116 6.66109 152.517 7.29733 152.761 8.04422C153.014 8.78189 153.141 9.60715 153.141 10.52C153.141 11.3222 153.035 12.023 152.824 12.6224C152.622 13.2217 152.344 13.7381 151.99 14.1715C151.644 14.5956 151.239 14.9552 150.775 15.2503C150.312 15.5454 149.823 15.7897 149.308 15.9834L155 23.4937H149.511L144.249 16.4951H139.127V23.4937ZM148.398 10.4924C148.398 10.1235 148.351 9.81001 148.258 9.55183C148.174 9.29364 148.022 9.08618 147.803 8.92942C147.584 8.76345 147.289 8.64358 146.918 8.56981C146.555 8.49604 146.1 8.45916 145.552 8.45916H139.127V12.5255H145.552C146.1 12.5255 146.555 12.4887 146.918 12.4149C147.289 12.3411 147.584 12.2259 147.803 12.0691C148.022 11.9031 148.174 11.6911 148.258 11.4329C148.351 11.1747 148.398 10.8612 148.398 10.4924Z" fill="black"/>
<path d="M23.7766 10.6757L23.7604 10.6594C23.7591 10.6585 23.758 10.6573 23.7574 10.6559L13.6072 0.505493L3.45713 10.6556C3.45596 10.6568 3.45531 10.6584 3.45413 10.6592L3.43738 10.6754C1.8853 12.2362 0.899455 14.271 0.636575 16.4565C0.373696 18.6419 0.848865 20.8525 1.98654 22.7369C3.12422 24.6212 4.85912 26.0713 6.91546 26.8563C8.97178 27.6414 11.2315 27.7166 13.3355 27.0698C13.5125 27.0157 13.7017 27.0157 13.8788 27.0698C15.9826 27.7164 18.2422 27.6411 20.2984 26.856C22.3546 26.0708 24.0893 24.6209 25.2269 22.7366C26.3645 20.8523 26.8398 18.6419 26.577 16.4566C26.3142 14.2713 25.3285 12.2365 23.7766 10.6757ZM7.06636 17.369C7.01695 17.4184 6.97777 17.4771 6.95104 17.5416C6.92431 17.6061 6.91054 17.6753 6.91056 17.7452C6.92862 19.5366 7.4349 21.2892 8.37492 22.8143C8.39627 22.8489 8.40614 22.8894 8.40311 22.9299C8.40008 22.9704 8.38432 23.0089 8.35805 23.04C8.3318 23.0711 8.2964 23.093 8.25693 23.1027C8.21745 23.1123 8.17592 23.1093 8.13828 23.094C7.4316 22.7968 6.78962 22.3646 6.24823 21.8219C5.13875 20.7122 4.51502 19.2075 4.51401 17.6384C4.51301 16.0692 5.13481 14.5637 6.24287 13.4526L13.6072 6.089L20.9711 13.4526C22.0794 14.5635 22.7014 16.069 22.7004 17.6384C22.6994 19.2075 22.0756 20.7122 20.966 21.8219C20.4246 22.3646 19.7827 22.7968 19.0761 23.094C19.0384 23.1093 18.9968 23.1123 18.9574 23.1027C18.918 23.093 18.8826 23.0709 18.8562 23.04C18.83 23.0089 18.8142 22.9704 18.8111 22.9298C18.8081 22.8893 18.818 22.8488 18.8393 22.8142C19.7795 21.2892 20.2861 19.5366 20.3044 17.7452C20.3044 17.6753 20.2905 17.6061 20.2637 17.5415C20.2368 17.4769 20.1975 17.4183 20.148 17.3689L16.6648 13.6743C16.63 13.6453 16.5864 13.6295 16.5412 13.6295C16.4961 13.6295 16.4523 13.6453 16.4177 13.6743C16.383 13.7031 16.3597 13.7434 16.3515 13.7878C16.3434 13.8322 16.3511 13.878 16.3734 13.9173C17.7262 16.3654 16.5629 19.8817 14.623 21.8219L14.6128 21.8322C14.345 22.097 13.9835 22.2455 13.6069 22.2454C13.2303 22.2453 12.8689 22.0965 12.6013 21.8315L12.5919 21.8219C10.6513 19.8817 9.48857 16.3658 10.8416 13.9178C10.8638 13.8785 10.8716 13.8328 10.8635 13.7883C10.8554 13.7439 10.832 13.7037 10.7973 13.6748C10.7627 13.6459 10.7189 13.63 10.6738 13.63C10.6286 13.63 10.5849 13.6459 10.5503 13.6748L7.06636 17.369Z" fill="#121212"/>
</svg>
