<svg width="17" height="21" viewBox="0 0 17 21" fill="none" xmlns="http://www.w3.org/2000/svg">
<path fill-rule="evenodd" clip-rule="evenodd" d="M6.30777 3.99998C6.30777 3.82776 6.39493 3.46198 6.74883 3.1343C7.09062 2.81782 7.75208 2.47434 9.00008 2.47434C10.2481 2.47434 10.9095 2.81782 11.2513 3.1343C11.6052 3.46198 11.6924 3.82776 11.6924 3.99998H13.3078C13.3078 3.39442 13.0449 2.59353 12.3488 1.94899C11.6406 1.29325 10.5521 0.858952 9.00008 0.858952C7.44807 0.858952 6.35953 1.29325 5.65132 1.94899C4.95522 2.59353 4.69238 3.39442 4.69238 3.99998H6.30777ZM6.30777 4V5.8202H11.6924V4H13.3078V5.8202H16.0821C16.5282 5.8202 16.8898 6.18182 16.8898 6.62789V17.661C16.8898 18.2954 16.6357 18.9024 16.1855 19.3489C15.7356 19.7953 15.1267 20.0449 14.4931 20.0449H3.3703C2.73677 20.0449 2.12787 19.7953 1.67792 19.3489C1.22774 18.9024 0.973633 18.2954 0.973633 17.661V6.62789C0.973633 6.18182 1.33525 5.8202 1.78133 5.8202H4.69238V4H6.30777ZM4.69238 9.83333V7.43558H2.58902V17.661C2.58902 17.8627 2.66973 18.0575 2.81553 18.2021C2.96156 18.3469 3.16099 18.4295 3.3703 18.4295H14.4931C14.7024 18.4295 14.9019 18.3469 15.0479 18.2021C15.1937 18.0575 15.2744 17.8627 15.2744 17.661V7.43558H13.3078V9.83333H11.6924V7.43558H6.30777V9.83333H4.69238Z" fill="#121212"/>
</svg>
