<svg xmlns="http://www.w3.org/2000/svg" width="28" height="28" viewBox="0 0 28 28" fill="none">
<path fill-rule="evenodd" clip-rule="evenodd" d="M14.7499 5.83203C14.7499 5.41782 14.4141 5.08203 13.9999 5.08203C13.5857 5.08203 13.2499 5.41782 13.2499 5.83203V13.2487H5.83325C5.41904 13.2487 5.08325 13.5845 5.08325 13.9987C5.08325 14.4129 5.41904 14.7487 5.83325 14.7487H13.2499V22.1654C13.2499 22.5796 13.5857 22.9154 13.9999 22.9154C14.4141 22.9154 14.7499 22.5796 14.7499 22.1654V14.7487H22.1666C22.5808 14.7487 22.9166 14.4129 22.9166 13.9987C22.9166 13.5845 22.5808 13.2487 22.1666 13.2487H14.7499V5.83203Z" fill="#121212"/>
</svg>