<svg xmlns="http://www.w3.org/2000/svg" width="20" height="20" viewBox="0 0 20 20" fill="none">
<path fill-rule="evenodd" clip-rule="evenodd" d="M10.3135 3.20703C6.58555 3.20703 3.56348 6.22911 3.56348 9.95703C3.56348 13.6849 6.58555 16.707 10.3135 16.707C14.0414 16.707 17.0635 13.6849 17.0635 9.95703C17.0635 6.22911 14.0414 3.20703 10.3135 3.20703ZM2.06348 9.95703C2.06348 5.40068 5.75713 1.70703 10.3135 1.70703C14.8698 1.70703 18.5635 5.40068 18.5635 9.95703C18.5635 14.5134 14.8698 18.207 10.3135 18.207C5.75713 18.207 2.06348 14.5134 2.06348 9.95703ZM10.3135 13.3737C10.7277 13.3737 11.0635 13.7095 11.0635 14.1237V14.1321C11.0635 14.5463 10.7277 14.8821 10.3135 14.8821C9.89926 14.8821 9.56347 14.5463 9.56347 14.1321V14.1237C9.56347 13.7095 9.89926 13.3737 10.3135 13.3737ZM10.381 5.01667C9.92956 5.01542 9.484 5.11897 9.07939 5.31918C8.67478 5.51938 8.32217 5.81077 8.04931 6.17041C7.79895 6.5004 7.8635 6.97086 8.19349 7.22123C8.52347 7.47159 8.99394 7.40704 9.2443 7.07705C9.37683 6.90237 9.5481 6.76084 9.74463 6.6636C9.94115 6.56635 10.1576 6.51606 10.3768 6.51667C10.5961 6.51727 10.8122 6.56877 11.0082 6.6671C11.2042 6.76543 11.3747 6.90791 11.5062 7.08333C11.6378 7.25874 11.7268 7.4623 11.7664 7.67797C11.8059 7.89365 11.7948 8.11555 11.734 8.32622C11.6732 8.53688 11.5643 8.73056 11.4159 8.89199C11.2693 9.05148 11.0881 9.1752 10.8863 9.25368C10.4823 9.39856 10.1356 9.6696 9.89737 10.0269C9.65688 10.3876 9.54013 10.8167 9.56468 11.2495C9.58813 11.6631 9.94239 11.9793 10.3559 11.9559C10.7695 11.9324 11.0857 11.5781 11.0623 11.1646C11.0561 11.0564 11.0853 10.9491 11.1454 10.8589C11.2056 10.7688 11.2934 10.7005 11.3956 10.6646L11.4147 10.6576C11.8363 10.4963 12.2148 10.2394 12.5203 9.90706C12.8258 9.57469 13.05 9.17594 13.1752 8.74222C13.3004 8.3085 13.3232 7.85164 13.2418 7.4076C13.1604 6.96356 12.9771 6.54447 12.7062 6.18333C12.4354 5.82218 12.0844 5.52884 11.6809 5.32639C11.2774 5.12395 10.8324 5.01792 10.381 5.01667Z" fill="#121212"/>
</svg>