<svg width="20" height="20" viewBox="0 0 20 20" fill="none" xmlns="http://www.w3.org/2000/svg">
<path fill-rule="evenodd" clip-rule="evenodd" d="M1.72574 7.91456C1.72574 4.56374 4.44211 1.84737 7.79292 1.84737C11.1437 1.84737 13.8601 4.56374 13.8601 7.91456C13.8601 11.2654 11.1437 13.9817 7.79292 13.9817C4.44211 13.9817 1.72574 11.2654 1.72574 7.91456ZM7.79292 0.231987C3.54996 0.231987 0.110352 3.67159 0.110352 7.91456C0.110352 12.1575 3.54996 15.5971 7.79292 15.5971C9.62367 15.5971 11.3049 14.9568 12.6247 13.8878L18.0259 19.289C18.3413 19.6044 18.8527 19.6044 19.1681 19.289C19.4836 18.9736 19.4836 18.4622 19.1681 18.1467L13.7669 12.7455C14.8354 11.4258 15.4755 9.74491 15.4755 7.91456C15.4755 3.67159 12.0359 0.231987 7.79292 0.231987Z" fill="#121212"/>
</svg>
