<svg xmlns="http://www.w3.org/2000/svg" width="20" height="20" viewBox="0 0 20 20" fill="none">
<path fill-rule="evenodd" clip-rule="evenodd" d="M9.91666 6.45866C9.91666 5.60722 10.6069 4.91699 11.4583 4.91699C12.3098 4.91699 13 5.60722 13 6.45866C13 7.3101 12.3098 8.00032 11.4583 8.00032C10.6069 8.00032 9.91666 7.3101 9.91666 6.45866ZM8.50983 7.20866C8.84385 8.52583 10.0373 9.50032 11.4583 9.50032C12.8794 9.50032 14.0728 8.52583 14.4068 7.20866H17.5C17.9142 7.20866 18.25 6.87287 18.25 6.45866C18.25 6.04444 17.9142 5.70866 17.5 5.70866H14.4068C14.0728 4.39148 12.8794 3.41699 11.4583 3.41699C10.0373 3.41699 8.84385 4.39148 8.50983 5.70866H2.5C2.08579 5.70866 1.75 6.04444 1.75 6.45866C1.75 6.87287 2.08579 7.20866 2.5 7.20866H8.50983ZM4.91667 13.1253C4.91667 12.2739 5.60689 11.5837 6.45833 11.5837C7.30977 11.5837 8 12.2739 8 13.1253C8 13.9768 7.30977 14.667 6.45833 14.667C5.60689 14.667 4.91667 13.9768 4.91667 13.1253ZM6.45833 16.167C5.03729 16.167 3.84385 15.1925 3.50983 13.8753H2.5C2.08579 13.8753 1.75 13.5395 1.75 13.1253C1.75 12.7111 2.08579 12.3753 2.5 12.3753H3.50983C3.84385 11.0581 5.03729 10.0837 6.45833 10.0837C7.87937 10.0837 9.07281 11.0581 9.40683 12.3753H17.5C17.9142 12.3753 18.25 12.7111 18.25 13.1253C18.25 13.5395 17.9142 13.8753 17.5 13.8753H9.40683C9.07281 15.1925 7.87937 16.167 6.45833 16.167Z" fill="#121212"/>
</svg>