<svg xmlns="http://www.w3.org/2000/svg" width="20" height="20" viewBox="0 0 20 20" fill="none">
<path fill-rule="evenodd" clip-rule="evenodd" d="M14.7402 3.16309C13.7737 3.16309 12.9902 3.94659 12.9902 4.91308C12.9902 5.16457 13.0433 5.40366 13.1388 5.61979C13.1451 5.63063 13.1511 5.64168 13.1569 5.65294C13.1689 5.67628 13.1796 5.69997 13.189 5.7239C13.4814 6.28217 14.0663 6.66308 14.7402 6.66308C15.7067 6.66308 16.4902 5.87958 16.4902 4.91308C16.4902 3.94659 15.7067 3.16309 14.7402 3.16309ZM11.4902 4.91308C11.4902 5.15846 11.5174 5.39749 11.569 5.62731L7.25239 7.851C6.65633 7.1257 5.75231 6.66308 4.74023 6.66308C2.94531 6.66308 1.49023 8.11816 1.49023 9.91308C1.49023 11.708 2.94531 13.1631 4.74023 13.1631C5.75231 13.1631 6.65634 12.7005 7.2524 11.9751L11.569 14.1988C11.5174 14.4287 11.4902 14.6677 11.4902 14.9131C11.4902 16.708 12.9453 18.1631 14.7402 18.1631C16.5352 18.1631 17.9902 16.708 17.9902 14.9131C17.9902 13.1182 16.5352 11.6631 14.7402 11.6631C13.7281 11.6631 12.8241 12.1257 12.228 12.851L7.91149 10.6273C7.96304 10.3975 7.99023 10.1585 7.99023 9.91308C7.99023 9.66769 7.96303 9.42864 7.91149 9.1988L12.228 6.97512C12.8241 7.70045 13.7281 8.16308 14.7402 8.16308C16.5352 8.16308 17.9902 6.70801 17.9902 4.91308C17.9902 3.11816 16.5352 1.66309 14.7402 1.66309C12.9453 1.66309 11.4902 3.11816 11.4902 4.91308ZM6.34193 10.6192C6.43728 10.4032 6.49023 10.1643 6.49023 9.91308C6.49023 9.66179 6.43727 9.42287 6.34189 9.20687C6.3355 9.19587 6.32935 9.18464 6.32346 9.17321C6.31135 9.14969 6.3006 9.12583 6.29118 9.10172C5.99869 8.54375 5.41391 8.16308 4.74023 8.16308C3.77374 8.16308 2.99023 8.94658 2.99023 9.91308C2.99023 10.8796 3.77374 11.6631 4.74023 11.6631C5.41389 11.6631 5.99864 11.2824 6.29115 10.7245C6.30057 10.7004 6.31133 10.6765 6.32346 10.6529C6.32936 10.6415 6.33553 10.6302 6.34193 10.6192ZM13.1388 14.2063C13.1451 14.1955 13.1511 14.1844 13.1569 14.1732C13.1689 14.1499 13.1796 14.1262 13.189 14.1023C13.4814 13.544 14.0663 13.1631 14.7402 13.1631C15.7067 13.1631 16.4902 13.9466 16.4902 14.9131C16.4902 15.8796 15.7067 16.6631 14.7402 16.6631C13.7737 16.6631 12.9902 15.8796 12.9902 14.9131C12.9902 14.6616 13.0433 14.4224 13.1388 14.2063Z" fill="#121212"/>
</svg>