<svg xmlns="http://www.w3.org/2000/svg" width="18" height="16" viewBox="0 0 18 16" fill="none">
<path d="M8.49844 1.35849C8.71376 0.850215 9.4341 0.850213 9.64942 1.35849L11.0811 4.73804C11.1721 4.95279 11.375 5.09902 11.6075 5.11732L15.3028 5.40818C15.8601 5.45205 16.0839 6.14971 15.656 6.50958L12.8577 8.86308C12.676 9.01585 12.5966 9.25832 12.6526 9.48896L13.5105 13.02C13.6415 13.5591 13.0575 13.9889 12.5817 13.7036L9.39537 11.7928C9.1975 11.6741 8.95036 11.6741 8.75249 11.7928L5.56613 13.7036C5.09037 13.9889 4.50639 13.5591 4.63736 13.02L5.49525 9.48895C5.55129 9.25832 5.47185 9.01585 5.2902 8.86308L2.49185 6.50958C2.06396 6.14971 2.28771 5.45205 2.84509 5.40818L6.54032 5.11732C6.77283 5.09902 6.9758 4.95279 7.06677 4.73804L8.49844 1.35849Z" fill="#FD7E14"/>
</svg>