<svg xmlns="http://www.w3.org/2000/svg" width="18" height="18" viewBox="0 0 18 18" fill="none">
<path fill-rule="evenodd" clip-rule="evenodd" d="M6.43848 6C6.43848 4.75736 7.44584 3.75 8.68848 3.75C9.93112 3.75 10.9385 4.75736 10.9385 6C10.9385 7.24264 9.93112 8.25 8.68848 8.25C7.44584 8.25 6.43848 7.24264 6.43848 6ZM8.68848 2.25C6.61741 2.25 4.93848 3.92893 4.93848 6C4.93848 8.07107 6.61741 9.75 8.68848 9.75C10.7595 9.75 12.4385 8.07107 12.4385 6C12.4385 3.92893 10.7595 2.25 8.68848 2.25ZM5.59749 12.5811C6.01944 12.1591 6.59174 11.922 7.18848 11.922H10.1885C10.7852 11.922 11.3575 12.1591 11.7795 12.5811C12.2014 13.003 12.4385 13.5753 12.4385 14.172V15.672C12.4385 16.0863 12.7743 16.422 13.1885 16.422C13.6027 16.422 13.9385 16.0863 13.9385 15.672V14.172C13.9385 13.1775 13.5434 12.2237 12.8401 11.5204C12.1369 10.8171 11.183 10.422 10.1885 10.422H7.18848C6.19391 10.422 5.24009 10.8171 4.53683 11.5204C3.83356 12.2237 3.43848 13.1775 3.43848 14.172V15.672C3.43848 16.0863 3.77426 16.422 4.18848 16.422C4.60269 16.422 4.93848 16.0863 4.93848 15.672V14.172C4.93848 13.5753 5.17553 13.003 5.59749 12.5811Z" fill="#3E3E59"/>
</svg>