<svg width="17" height="23" viewBox="0 0 17 23" fill="none" xmlns="http://www.w3.org/2000/svg">
<path fill-rule="evenodd" clip-rule="evenodd" d="M4.65715 6.33351C4.65715 4.20226 6.38487 2.47453 8.51613 2.47453C10.6474 2.47453 12.3751 4.20226 12.3751 6.33351C12.3751 8.46476 10.6474 10.1925 8.51613 10.1925C6.38487 10.1925 4.65715 8.46476 4.65715 6.33351ZM8.51613 0.85915C5.49272 0.85915 3.04177 3.3101 3.04177 6.33351C3.04177 9.35691 5.49272 11.8079 8.51613 11.8079C11.5395 11.8079 13.9905 9.35691 13.9905 6.33351C13.9905 3.3101 11.5395 0.85915 8.51613 0.85915ZM3.45268 16.3165C4.17638 15.5928 5.15793 15.1862 6.18139 15.1862H10.8481C11.8715 15.1862 12.8531 15.5928 13.5768 16.3165C14.3005 17.0402 14.707 18.0217 14.707 19.0452V21.3785C14.707 21.8246 15.0686 22.1862 15.5147 22.1862C15.9608 22.1862 16.3224 21.8246 16.3224 21.3785V19.0452C16.3224 17.5933 15.7457 16.2009 14.719 15.1742C13.6924 14.1476 12.2999 13.5708 10.8481 13.5708H6.18139C4.7295 13.5708 3.33707 14.1476 2.31043 15.1742C1.28379 16.2009 0.707031 17.5933 0.707031 19.0452V21.3785C0.707031 21.8246 1.06865 22.1862 1.51472 22.1862C1.9608 22.1862 2.32242 21.8246 2.32242 21.3785V19.0452C2.32242 18.0217 2.72899 17.0402 3.45268 16.3165Z" fill="#121212"/>
</svg>
