<svg xmlns="http://www.w3.org/2000/svg" width="16" height="14" viewBox="0 0 16 14" fill="none">
<path d="M13.7326 7.74096L8.00636 13.25L2.28016 7.74096M2.28016 7.74096C1.90247 7.38393 1.60496 6.95481 1.40638 6.48061C1.2078 6.00641 1.11245 5.4974 1.12632 4.98565C1.1402 4.47389 1.26301 3.97047 1.48701 3.50708C1.71102 3.04369 2.03137 2.63038 2.42789 2.29316C2.82441 1.95595 3.28851 1.70214 3.79097 1.54772C4.29343 1.3933 4.82336 1.34162 5.34739 1.39592C5.87143 1.45022 6.37821 1.60934 6.83583 1.86324C7.29345 2.11715 7.69199 2.46035 8.00636 2.87123C8.32209 2.46333 8.72109 2.12313 9.1784 1.87192C9.6357 1.62071 10.1415 1.46389 10.664 1.41129C11.1866 1.35868 11.7147 1.41142 12.2153 1.5662C12.7159 1.72098 13.1783 1.97447 13.5734 2.3108C13.9685 2.64714 14.2879 3.05908 14.5116 3.52084C14.7353 3.9826 14.8585 4.48425 14.8734 4.99438C14.8884 5.50451 14.7948 6.01215 14.5985 6.48551C14.4021 6.95888 14.1074 7.3878 13.7326 7.74541" stroke="#121212" stroke-width="1.5" stroke-linecap="round" stroke-linejoin="round"/>
</svg>